<?xml version="1.0" encoding="UTF-8"?>
<svg id="Layer_2" data-name="Layer 2" xmlns="http://www.w3.org/2000/svg" viewBox="0 0 582.84 63.03">
  <defs>
    <style>
      .cls-1 {
        fill: #fff;
      }

      .cls-2 {
        fill: #e73649;
      }
    </style>
  </defs>
  <g id="Layer_1-2" data-name="Layer 1">
    <path d="m14.09,27.28h3.46c2.73,0,4.64-.48,5.74-1.42,1.1-.94,1.65-2.15,1.65-3.62s-.48-2.63-1.44-3.63c-.95-.99-2.75-1.49-5.39-1.49h-4.02v10.15ZM0,7.86h23.36c5.09,0,8.9,1.21,11.43,3.63,2.53,2.42,3.8,5.87,3.8,10.35s-1.39,8.19-4.15,10.77c-2.76,2.59-6.98,3.88-12.65,3.88h-7.7v16.82H0V7.86Z"/>
    <path d="m62.77,37.63c-1.73.62-3.54,1.17-5.44,1.66-2.56.69-4.19,1.36-4.87,2.03-.71.69-1.06,1.47-1.06,2.35,0,1,.35,1.83,1.04,2.46.7.63,1.71.95,3.06.95s2.72-.35,3.94-1.04c1.21-.69,2.06-1.52,2.57-2.52.51-.99.76-2.28.76-3.87v-2.03Zm-10.92-6.6l-12.06-1.27c.46-2.12,1.11-3.78,1.97-4.98.86-1.22,2.08-2.26,3.7-3.15,1.15-.64,2.74-1.14,4.76-1.49,2.02-.35,4.21-.53,6.57-.53,3.78,0,6.8.21,9.1.63,2.28.42,4.2,1.31,5.72,2.65,1.08.93,1.93,2.25,2.54,3.96.62,1.7.93,3.33.93,4.89v14.56c0,1.56.1,2.77.3,3.65.19.88.62,2,1.28,3.36h-11.82c-.48-.85-.78-1.48-.93-1.93-.14-.44-.29-1.13-.43-2.07-1.65,1.59-3.29,2.72-4.93,3.4-2.23.91-4.82,1.36-7.77,1.36-3.92,0-6.91-.91-8.94-2.74-2.04-1.82-3.06-4.07-3.06-6.74,0-2.51.73-4.57,2.2-6.19,1.47-1.62,4.18-2.82,8.12-3.61,4.73-.95,7.8-1.62,9.2-2.01,1.41-.38,2.9-.88,4.46-1.5,0-1.56-.32-2.63-.96-3.26-.64-.62-1.76-.93-3.36-.93-2.06,0-3.61.33-4.64.99-.8.53-1.45,1.5-1.95,2.94Z"/>
    <path d="m79.08,20.37h11.83v5.37c1.14-2.34,2.32-3.94,3.52-4.82,1.22-.88,2.71-1.31,4.48-1.31,1.87,0,3.91.58,6.12,1.75l-3.91,8.96c-1.49-.62-2.68-.93-3.54-.93-1.65,0-2.94.69-3.85,2.05-1.3,1.93-1.96,5.53-1.96,10.81v11.06h-12.69V20.37Z"/>
    <path d="m140.19,53.31h-11.79v-5.31c-1.76,2.19-3.52,3.74-5.3,4.68-1.79.93-3.98,1.4-6.58,1.4-3.47,0-6.18-1.04-8.16-3.12-1.97-2.07-2.95-5.28-2.95-9.6v-20.98h12.69v18.15c0,2.06.38,3.53,1.14,4.41.76.87,1.83,1.3,3.21,1.3,1.49,0,2.72-.58,3.68-1.73.95-1.16,1.43-3.25,1.43-6.25v-15.88h12.63v32.94Z"/>
    <rect x="144.64" y="7.86" width="12.63" height="45.44"/>
    <path d="m427.61,62.15l-.58-4.89c1.15.31,2.14.46,2.98.46,1.16,0,2.08-.2,2.78-.58.7-.38,1.26-.92,1.71-1.62.34-.51.86-1.81,1.59-3.87.1-.3.26-.71.46-1.27l-11.66-30.81h5.61l6.4,17.8c.82,2.26,1.57,4.63,2.22,7.13.6-2.39,1.31-4.72,2.14-7.01l6.57-17.92h5.21l-11.69,31.27c-1.25,3.38-2.23,5.7-2.92,6.98-.93,1.72-1.99,2.97-3.18,3.78-1.21.8-2.63,1.2-4.29,1.2-1.01,0-2.12-.22-3.36-.64Zm-5.04-16.5l.75,4.61c-1.46.31-2.78.46-3.93.46-1.9,0-3.36-.3-4.41-.9-1.04-.59-1.77-1.38-2.19-2.36-.42-.97-.64-3.02-.64-6.15v-17.69h-3.82v-4.05h3.82v-7.62l5.19-3.12v10.74h5.24v4.05h-5.24v17.98c0,1.49.09,2.44.27,2.87.19.42.48.76.9,1.02.41.25,1.01.38,1.78.38.58,0,1.34-.07,2.29-.21Zm-24.7,4.66v-30.75h5.22v30.75h-5.22Zm0-36.45v-6h5.22v6h-5.22Zm-31.92,27.27l5.15-.81c.29,2.06,1.1,3.65,2.42,4.75,1.31,1.1,3.16,1.65,5.54,1.65s4.17-.49,5.32-1.46c1.16-.98,1.74-2.12,1.74-3.43,0-1.18-.51-2.11-1.54-2.79-.71-.46-2.49-1.05-5.32-1.76-3.81-.97-6.47-1.8-7.94-2.51-1.47-.7-2.6-1.68-3.36-2.93-.76-1.24-1.15-2.62-1.15-4.12,0-1.37.32-2.64.95-3.81.62-1.18,1.48-2.14,2.56-2.91.81-.59,1.92-1.11,3.31-1.52,1.4-.41,2.9-.62,4.5-.62,2.41,0,4.52.36,6.35,1.05,1.83.69,3.17,1.63,4.04,2.82.87,1.2,1.46,2.78,1.79,4.76l-5.09.7c-.24-1.58-.91-2.82-2.02-3.71-1.11-.89-2.68-1.33-4.7-1.33-2.39,0-4.1.4-5.12,1.19-1.03.79-1.54,1.72-1.54,2.78,0,.68.22,1.28.64,1.83.42.56,1.09,1.02,2,1.39.52.19,2.06.63,4.6,1.32,3.68.99,6.25,1.79,7.7,2.42,1.46.62,2.61,1.54,3.44,2.74.83,1.2,1.25,2.68,1.25,4.46s-.51,3.37-1.52,4.91c-1.02,1.53-2.48,2.72-4.39,3.56-1.91.84-4.07,1.26-6.48,1.26-4,0-7.04-.83-9.14-2.49-2.09-1.66-3.43-4.12-4-7.38Zm-17.89,9.18v-30.75h4.68v4.65c1.2-2.17,2.3-3.62,3.32-4.31,1.01-.69,2.13-1.05,3.34-1.05,1.76,0,3.54.56,5.35,1.68l-1.8,4.84c-1.26-.76-2.54-1.14-3.81-1.14-1.14,0-2.16.35-3.07,1.03-.91.69-1.55,1.64-1.94,2.86-.58,1.85-.87,3.87-.87,6.08v16.1h-5.21Zm-29.16-18.33h17.16c-.23-2.58-.89-4.53-1.97-5.81-1.66-2.01-3.81-3.01-6.45-3.01-2.39,0-4.41.8-6.03,2.4-1.63,1.6-2.53,3.75-2.71,6.42Zm17.1,8.43l5.38.66c-.85,3.15-2.42,5.59-4.71,7.33-2.3,1.73-5.24,2.6-8.8,2.6-4.5,0-8.06-1.38-10.69-4.15-2.64-2.77-3.95-6.65-3.95-11.65s1.33-9.19,3.99-12.05c2.67-2.86,6.11-4.29,10.36-4.29s7.47,1.4,10.07,4.2c2.61,2.8,3.91,6.74,3.91,11.81,0,.32,0,.78-.03,1.39h-22.92c.19,3.38,1.14,5.97,2.86,7.76,1.72,1.8,3.85,2.7,6.42,2.7,1.91,0,3.54-.5,4.89-1.51,1.35-1,2.42-2.6,3.21-4.8Zm-42.31,9.9l-11.7-30.75h5.5l6.6,18.41c.71,1.99,1.36,4.05,1.97,6.2.46-1.62,1.11-3.57,1.94-5.85l6.84-18.76h5.35l-11.64,30.75h-4.86Zm-21.87,0v-30.75h5.21v30.75h-5.21Zm0-36.45v-6h5.21v6h-5.21Zm-33.17,36.45v-30.75h4.68v4.37c2.26-3.38,5.52-5.07,9.78-5.07,1.86,0,3.56.34,5.11,1,1.56.67,2.72,1.54,3.49,2.63.78,1.08,1.31,2.36,1.63,3.84.19.97.29,2.66.29,5.07v18.91h-5.22v-18.71c0-2.12-.2-3.71-.6-4.76-.41-1.05-1.13-1.89-2.15-2.51-1.04-.63-2.24-.95-3.63-.95-2.22,0-4.13.71-5.75,2.12-1.61,1.41-2.41,4.08-2.41,8.02v16.79h-5.21Zm-14.49-42.45h5.62v24.53c0,4.26-.49,7.65-1.45,10.16-.97,2.51-2.71,4.55-5.22,6.12-2.52,1.58-5.82,2.36-9.91,2.36s-7.23-.68-9.75-2.06c-2.53-1.36-4.34-3.35-5.41-5.95-1.09-2.6-1.62-6.14-1.62-10.63V7.86h5.61v24.5c0,3.69.35,6.4,1.03,8.14.68,1.75,1.87,3.09,3.53,4.04,1.67.95,3.71,1.42,6.13,1.42,4.13,0,7.07-.94,8.83-2.82,1.75-1.87,2.63-5.46,2.63-10.79V7.86Z"/>
    <rect class="cls-2" x="468.8" width="114.04" height="63.03" rx="9.69" ry="9.69"/>
    <path class="cls-1" d="m500.84,36.9v-5.48h14.17v12.97c-1.38,1.33-3.38,2.51-5.99,3.53-2.61,1.01-5.25,1.51-7.93,1.51-3.4,0-6.37-.71-8.9-2.13-2.53-1.44-4.43-3.48-5.71-6.13-1.27-2.66-1.91-5.56-1.91-8.68,0-3.39.71-6.4,2.13-9.04,1.42-2.63,3.5-4.66,6.24-6.06,2.09-1.08,4.69-1.62,7.79-1.62,4.04,0,7.19.85,9.46,2.55,2.28,1.69,3.75,4.03,4.4,7.02l-6.53,1.22c-.46-1.6-1.32-2.86-2.6-3.77-1.26-.93-2.83-1.4-4.73-1.4-2.87,0-5.16.91-6.86,2.73-1.69,1.82-2.53,4.52-2.53,8.11,0,3.86.86,6.77,2.58,8.7,1.72,1.92,3.97,2.89,6.75,2.89,1.38,0,2.75-.27,4.13-.8,1.39-.55,2.58-1.21,3.58-1.98v-4.13h-7.53Z"/>
    <path class="cls-1" d="m524.18,37.08c0,2.34.56,4.13,1.67,5.37,1.11,1.24,2.48,1.87,4.11,1.87s2.99-.62,4.09-1.87c1.11-1.24,1.67-3.05,1.67-5.42s-.56-4.09-1.67-5.33c-1.1-1.24-2.46-1.87-4.09-1.87s-3,.62-4.11,1.87c-1.11,1.24-1.67,3.03-1.67,5.37Zm-6.39-.33c0-2.07.51-4.08,1.53-6.02,1.02-1.94,2.46-3.42,4.33-4.44,1.88-1.02,3.98-1.53,6.29-1.53,3.57,0,6.49,1.16,8.77,3.49,2.28,2.31,3.42,5.23,3.42,8.77s-1.15,6.53-3.46,8.88c-2.29,2.34-5.19,3.51-8.68,3.51-2.16,0-4.23-.49-6.2-1.47-1.95-.98-3.44-2.41-4.46-4.29-1.02-1.89-1.53-4.2-1.53-6.91Z"/>
    <path class="cls-1" d="m558.22,37.54c-.8.27-2.06.58-3.8.95-1.73.37-2.86.73-3.4,1.09-.81.58-1.22,1.31-1.22,2.2s.33,1.63.98,2.26c.65.64,1.48.96,2.49.96,1.12,0,2.2-.37,3.22-1.11.75-.56,1.25-1.25,1.49-2.07.16-.53.24-1.55.24-3.04v-1.24Zm-8.35-5.06l-5.66-1.02c.64-2.28,1.73-3.97,3.29-5.06,1.56-1.1,3.86-1.64,6.93-1.64,2.78,0,4.86.33,6.22,1,1.36.65,2.32,1.49,2.86,2.51.56,1.01.84,2.86.84,5.57l-.07,7.28c0,2.07.1,3.6.29,4.6.21.98.58,2.03,1.13,3.15h-6.17c-.16-.41-.36-1.03-.6-1.84-.1-.37-.18-.61-.22-.73-1.07,1.04-2.21,1.81-3.42,2.33-1.22.52-2.51.78-3.89.78-2.43,0-4.34-.66-5.75-1.98-1.39-1.32-2.09-2.98-2.09-5,0-1.33.32-2.52.95-3.55.64-1.05,1.53-1.85,2.66-2.4,1.15-.56,2.81-1.05,4.98-1.47,2.92-.55,4.94-1.06,6.06-1.53v-.62c0-1.2-.3-2.05-.89-2.55-.59-.52-1.71-.78-3.35-.78-1.11,0-1.98.22-2.6.67-.62.43-1.13,1.19-1.51,2.29Z"/>
  </g>
</svg>